<svg width="412" height="399" viewBox="0 0 412 399" fill="none" xmlns="http://www.w3.org/2000/svg">
<path d="M295.363 399C359.78 399 412 394.181 412 388.237C412 382.293 359.78 377.475 295.363 377.475C230.945 377.475 178.725 382.293 178.725 388.237C178.725 394.181 230.945 399 295.363 399Z" fill="white"/>
<path opacity="0.1" d="M295.363 399C359.78 399 412 394.181 412 388.237C412 382.293 359.78 377.475 295.363 377.475C230.945 377.475 178.725 382.293 178.725 388.237C178.725 394.181 230.945 399 295.363 399Z" fill="#292A2E"/>
<path d="M101.739 228.19H64.5607V239.008H101.739V228.19Z" fill="#F4F4F4"/>
<path opacity="0.05" d="M74.4249 228.19H69.5534V239.008H74.4249V228.19Z" fill="#292A2E"/>
<path d="M96.9887 230.541H76.7326V236.952H96.9887V230.541Z" fill="white"/>
<path d="M131.394 229.601L96.849 214.513L92.5192 224.427L127.065 239.515L131.394 229.601Z" fill="#F4F4F4"/>
<path opacity="0.05" d="M131.394 229.601L96.849 214.513L92.5192 224.427L127.065 239.515L131.394 229.601Z" fill="#292A2E"/>
<path d="M126.755 227.575L122.229 225.598L117.899 235.511L122.426 237.488L126.755 227.575Z" fill="white"/>
<path d="M119.143 226.816L100.322 218.596L97.7562 224.47L116.577 232.691L119.143 226.816Z" fill="white"/>
<path opacity="0.05" d="M131.459 365.228H122.116V371.467H131.459V365.228Z" fill="#292A2E"/>
<path opacity="0.05" d="M35.9364 365.228H26.5933V371.467H35.9364V365.228Z" fill="#292A2E"/>
<path d="M140.024 239.515H18.0293V365.016H140.024V239.515Z" fill="#F4F4F4"/>
<path opacity="0.03" d="M140.024 239.515H18.0293V365.016H140.024V239.515Z" fill="#292A2E"/>
<path d="M162.631 239.515H40.6366V365.016H162.631V239.515Z" fill="#F4F4F4"/>
<path opacity="0.05" d="M154.066 365.228H144.723V371.467H154.066V365.228Z" fill="#292A2E"/>
<path opacity="0.05" d="M58.5441 365.228H49.2011V371.467H58.5441V365.228Z" fill="#292A2E"/>
<path opacity="0.7" d="M158.052 245.393H45.2165V269.505H158.052V245.393Z" fill="white"/>
<path opacity="0.7" d="M158.052 275.406H45.2165V299.517H158.052V275.406Z" fill="white"/>
<path opacity="0.7" d="M158.052 305.419H45.2165V329.53H158.052V305.419Z" fill="white"/>
<path opacity="0.05" d="M101.634 260.822C103.497 260.822 105.008 259.312 105.008 257.449C105.008 255.586 103.497 254.075 101.634 254.075C99.771 254.075 98.2606 255.586 98.2606 257.449C98.2606 259.312 99.771 260.822 101.634 260.822Z" fill="#292A2E"/>
<path opacity="0.05" d="M101.634 290.835C103.497 290.835 105.008 289.325 105.008 287.462C105.008 285.598 103.497 284.088 101.634 284.088C99.771 284.088 98.2606 285.598 98.2606 287.462C98.2606 289.325 99.771 290.835 101.634 290.835Z" fill="#292A2E"/>
<path opacity="0.05" d="M101.634 320.848C103.497 320.848 105.008 319.338 105.008 317.475C105.008 315.612 103.497 314.101 101.634 314.101C99.771 314.101 98.2606 315.612 98.2606 317.475C98.2606 319.338 99.771 320.848 101.634 320.848Z" fill="#292A2E"/>
<path opacity="0.7" d="M158.052 336.108H45.2165V360.22H158.052V336.108Z" fill="white"/>
<path opacity="0.05" d="M101.634 351.537C103.498 351.537 105.008 350.027 105.008 348.164C105.008 346.301 103.498 344.79 101.634 344.79C99.771 344.79 98.2606 346.301 98.2606 348.164C98.2606 350.027 99.771 351.537 101.634 351.537Z" fill="#292A2E"/>
<path d="M61.3351 114.949L133.471 114.949V21.0558L61.3351 21.0558L61.3351 114.949Z" fill="#F4F4F4"/>
<path d="M61.3356 21.0558H58.9954V114.949H61.3356V21.0558Z" fill="#F4F4F4"/>
<path opacity="0.05" d="M61.3356 21.0558H58.9954V114.949H61.3356V21.0558Z" fill="#292A2E"/>
<path opacity="0.05" d="M74.4762 97.8452H120.331L120.331 38.1593L74.4762 38.1593V97.8452Z" fill="#292A2E"/>
<path opacity="0.03" d="M74.4762 97.8452H76.8659L76.8659 38.1593H74.4762V97.8452Z" fill="#292A2E"/>
<path d="M2.33969 197.576H61.3351L61.3351 138.039H2.33969L2.33969 197.576Z" fill="#F4F4F4"/>
<path opacity="0.05" d="M13.0865 186.731H50.5882L50.5882 148.885H13.0865L13.0865 186.731Z" fill="#292A2E"/>
<path d="M2.34015 138.039H0V197.576H2.34015V138.039Z" fill="#F4F4F4"/>
<path opacity="0.05" d="M2.34015 138.039H0V197.576H2.34015V138.039Z" fill="#292A2E"/>
<path opacity="0.03" d="M13.0865 186.731H15.4762L15.4762 148.885H13.0865L13.0865 186.731Z" fill="#292A2E"/>
<path d="M362.086 20.8322H211.549V171.368H362.086V20.8322Z" fill="#F4F4F4"/>
<path d="M211.549 20.8322H209.824V171.368H211.549V20.8322Z" fill="#F4F4F4"/>
<path opacity="0.05" d="M211.549 20.8322H209.824V171.368H211.549V20.8322Z" fill="#292A2E"/>
<path opacity="0.05" d="M248.017 124.564V85.1784H280.28V108.061H330.254V148.576H351.494V171.368H330.254H326.162H218.791V124.564H248.017Z" fill="#292A2E"/>
<path opacity="0.34" d="M276.138 89.4547H252.645V93.7309H276.138V89.4547Z" fill="#FFFFFA"/>
<path opacity="0.34" d="M276.138 98.3163H252.645V102.593H276.138V98.3163Z" fill="#FFFFFA"/>
<path opacity="0.34" d="M276.138 107.178H252.645V111.454H276.138V107.178Z" fill="#FFFFFA"/>
<path opacity="0.34" d="M227.287 128.715H222.957V132.991H227.287V128.715Z" fill="#FFFFFA"/>
<path opacity="0.34" d="M227.287 137.576H222.957V141.853H227.287V137.576Z" fill="#FFFFFA"/>
<path opacity="0.34" d="M227.287 146.438H222.957V150.714H227.287V146.438Z" fill="#FFFFFA"/>
<path opacity="0.34" d="M235.298 128.715H230.968V132.991H235.298V128.715Z" fill="#FFFFFA"/>
<path opacity="0.34" d="M235.298 137.576H230.968V141.853H235.298V137.576Z" fill="#FFFFFA"/>
<path opacity="0.34" d="M235.298 146.438H230.968V150.714H235.298V146.438Z" fill="#FFFFFA"/>
<path opacity="0.34" d="M243.092 128.715H238.762V132.991H243.092V128.715Z" fill="#FFFFFA"/>
<path opacity="0.34" d="M243.092 137.576H238.762V141.853H243.092V137.576Z" fill="#FFFFFA"/>
<path opacity="0.34" d="M243.092 146.438H238.762V150.714H243.092V146.438Z" fill="#FFFFFA"/>
<path d="M211.549 95.2555H241.839V20.8318H244.345V95.2555H326.162V20.8318H328.667V95.2555H362.086V97.7605H328.667V171.368H326.162V97.7605H244.345V171.368H241.839V97.7605H211.549V95.2555Z" fill="white"/>
<path d="M368.082 171.186H205.552V176.192H368.082V171.186Z" fill="#F4F4F4"/>
<path opacity="0.1" d="M368.082 171.186H205.552V176.192H368.082V171.186Z" fill="#292A2E"/>
<path opacity="0.1" d="M205.552 171.186H203.206V176.192H205.552V171.186Z" fill="#292A2E"/>
<path opacity="0.1" d="M205.552 171.186H203.206V176.192H205.552V171.186Z" fill="#292A2E"/>
<path d="M336.272 196.975C313.226 196.975 294.543 203.262 294.543 211.018V227.737H378.001V211.018C378.001 203.262 359.318 196.975 336.272 196.975Z" fill="#367CFF"/>
<path opacity="0.49" d="M336.272 196.975C313.226 196.975 294.543 203.262 294.543 211.018V227.737H378.001V211.018C378.001 203.262 359.318 196.975 336.272 196.975Z" fill="white"/>
<path opacity="0.49" d="M366.634 211.02V227.736H294.542V211.02C294.542 203.911 310.232 198.037 330.588 197.109C350.945 198.037 366.634 203.911 366.634 211.02Z" fill="white"/>
<path d="M378.001 390.184H379.402L378.001 226.254L376.613 227.654L377.603 342.164L328.165 343.004L327.167 227.642L325.779 227.654L326.776 343.028L296.933 343.535L295.93 227.642L294.542 226.266L295.943 390.184L297.319 390.172L296.944 344.924L326.788 344.417L327.167 390.184L328.556 390.172L328.177 344.393L377.615 343.552L378.001 390.184Z" fill="#292A2E"/>
<path d="M252.131 365.641C252.131 365.641 249.649 378.505 237.605 379.222C225.56 379.939 228.172 389.534 228.172 389.534H274.2V366.538L252.131 365.641Z" fill="#7000FF"/>
<path d="M278.392 326.949C278.392 326.949 281.843 339.587 271.352 345.547C260.861 351.507 267.44 358.964 267.44 358.964L308.741 338.645L298.59 318.011L278.392 326.949Z" fill="#7000FF"/>
<path d="M274.022 335.302L242.902 217.883C240.542 204.911 244.095 199.288 249.571 193.826C259.192 184.23 299.057 163.806 299.057 163.806L346.883 163.675C359.565 163.675 372.031 176.18 372.031 188.861C372.031 201.542 359.14 212.297 346.458 212.297L287.565 218.175L303.529 325.688L274.022 335.302Z" fill="#262626"/>
<path d="M303.529 325.687L297.244 283.36L265.403 302.783L274.022 335.302L303.529 325.687Z" fill="#0C0C0C"/>
<path d="M310.746 187.567C310.746 187.567 290.641 192.047 270.729 211.959C258.657 224.031 259.647 245.878 261.458 287.897L281.234 258.686L302.925 219.566L310.746 187.567Z" fill="#0C0C0C"/>
<path d="M380.357 163.662L347.877 163.509L347.865 163.937H338.03C338.03 163.937 313.394 186.605 293.561 200.89C279.134 211.28 270.333 221.186 269.571 231.982C267.715 258.3 246.777 370.542 246.777 370.542L278.288 375.314L305.942 241.176C305.942 241.176 349.181 221.24 359.183 214.305C368.601 207.772 375.253 205.247 378.37 198.118C383.752 185.806 380.357 163.662 380.357 163.662Z" fill="#262626"/>
<path d="M343.918 171.843L291.228 172.541L320.785 190.194L345.379 177.494C345.971 177.176 346.44 176.668 346.71 176.052C346.979 175.436 347.034 174.747 346.866 174.096C346.698 173.444 346.316 172.868 345.781 172.46C345.247 172.052 344.591 171.834 343.918 171.843Z" fill="#292A2E"/>
<path opacity="0.2" d="M343.918 171.843L291.228 172.541L320.785 190.194L345.379 177.494C345.971 177.176 346.44 176.668 346.71 176.052C346.979 175.436 347.034 174.747 346.866 174.096C346.698 173.444 346.316 172.868 345.781 172.46C345.247 172.052 344.591 171.834 343.918 171.843Z" fill="white"/>
<path d="M291.53 77.3161L276.626 125.605L246.775 164.689L264.212 184.706L299.726 145.068C301.362 143.775 302.642 142.087 303.445 140.162L303.998 138.823L324.512 89.1904L291.53 77.3161Z" fill="#7000FF"/>
<path d="M314.488 26.0582C314.488 26.0582 308.483 21.5223 306.995 11.0898C305.843 3.01175 313.295 8.24515 313.295 8.24515C313.295 8.24515 312.522 2.42023 316.766 2.99833C321.01 3.57642 323.385 9.69524 323.385 9.69524" fill="#0C0C0C"/>
<path d="M338.7 3.68008C338.7 3.68008 359.757 5.93738 352.145 34.4709L350.282 34.5959L346.5 34.8495" fill="#0C0C0C"/>
<path d="M318.015 64.2699C318.108 64.2578 319.135 81.3026 338.936 79.8182C352.646 78.7912 357.534 64.2458 357.848 64.2458C356.37 63.9315 354.543 63.4548 353.817 63.2914C352.235 62.9242 350.802 62.084 349.709 60.8825C348.616 59.681 347.915 58.1752 347.698 56.5653C347.298 54.1493 347.976 41.7876 347.768 39.3428L326.726 44.0398C327.021 49.2033 329.079 61.173 321.867 63.2914C320.665 63.6413 319.372 63.9653 318.015 64.2699Z" fill="#E98862"/>
<path d="M326.432 58.3996C326.761 57.3372 326.974 56.2419 327.065 55.1333C327.296 52.6036 327.249 50.0562 326.926 47.5366C331.203 46.9602 335.233 45.1955 338.558 42.443C338.949 43.8861 341.098 50.1919 340.502 51.561C339.378 54.153 334.093 58.3996 326.432 58.3996Z" fill="#0C0C0C"/>
<path d="M330.775 55.0259C339.077 54.2812 349.014 49.0357 349.157 37.7659L349.287 27.5972C349.43 16.3278 343.627 7.11671 333.016 6.98156C322.405 6.84687 314.358 15.8816 314.214 27.1515L314.157 31.6531C314.165 33.1992 314.277 34.7429 314.494 36.2737C315.039 40.3236 315.883 46.4808 318.631 50.646C321.226 54.5783 325.471 55.5012 330.775 55.0259Z" fill="#E98862"/>
<path d="M326.923 44.7248C325.21 44.8024 323.502 44.4763 321.938 43.7727C321.874 43.7439 321.824 43.6911 321.799 43.6258C321.773 43.5605 321.774 43.4879 321.802 43.4234C321.829 43.359 321.881 43.3078 321.946 43.281C322.01 43.2541 322.083 43.2537 322.148 43.2798C325.518 44.7169 328.578 44.5068 330.997 42.6716C331.045 42.633 331.096 42.597 331.148 42.5638C331.209 42.5351 331.279 42.5304 331.343 42.5506C331.407 42.5707 331.461 42.6142 331.495 42.6725C331.528 42.7308 331.539 42.7995 331.524 42.8651C331.509 42.9307 331.47 42.9883 331.415 43.0266C331.396 43.0386 331.364 43.0632 331.323 43.0965C330.051 44.0652 328.519 44.6322 326.923 44.7248Z" fill="#0C0C0C"/>
<path d="M327.001 47.2635C326.692 47.2826 326.381 47.2751 326.073 47.2413C326.038 47.2376 326.004 47.227 325.973 47.2102C325.942 47.1934 325.915 47.1707 325.893 47.1434C325.871 47.116 325.854 47.0846 325.844 47.0509C325.835 47.0172 325.831 46.9819 325.835 46.9469C325.839 46.912 325.849 46.8781 325.866 46.8472C325.883 46.8163 325.906 46.7891 325.933 46.767C325.96 46.7449 325.992 46.7284 326.025 46.7185C326.059 46.7085 326.094 46.7053 326.129 46.709C327.984 46.9057 328.869 46.0564 328.906 46.0198C328.957 45.9696 329.025 45.9413 329.096 45.9412C329.167 45.9411 329.235 45.9692 329.285 46.0194C329.335 46.0695 329.364 46.1376 329.364 46.2086C329.364 46.2796 329.336 46.3477 329.286 46.398C328.647 46.9417 327.84 47.2475 327.001 47.2635Z" fill="#0C0C0C"/>
<path d="M317.719 33.8201C318.44 33.8201 319.026 33.235 319.026 32.5131C319.026 31.7912 318.44 31.206 317.719 31.206C316.997 31.206 316.411 31.7912 316.411 32.5131C316.411 33.235 316.997 33.8201 317.719 33.8201Z" fill="#0C0C0C"/>
<path d="M330.488 33.019C331.21 33.019 331.795 32.4338 331.795 31.7119C331.795 30.99 331.21 30.4048 330.488 30.4048C329.766 30.4048 329.181 30.99 329.181 31.7119C329.181 32.4338 329.766 33.019 330.488 33.019Z" fill="#0C0C0C"/>
<path d="M348.455 41.1933C351.679 41.2345 354.337 37.8177 354.379 34.5931C354.421 31.3685 351.828 29.5569 348.604 29.5161L346.915 31.6554L345.683 41.1581L348.455 41.1933Z" fill="#E98862"/>
<path d="M345.246 36.0094C345.246 36.0094 344.158 20.063 339.322 19.0781C336.101 18.4222 328.292 22.9905 321.058 21.6108C317.893 21.0091 314.889 21.7903 314.584 23.2853C314.462 23.8773 312.491 15.3707 317.447 8.91674C321.393 3.77915 334.305 2.32581 340.179 4.01057C356.445 8.67699 349.268 30.2155 349.268 30.2155L348.542 35.7132L345.246 36.0094Z" fill="#0C0C0C"/>
<path d="M324.974 40.9619C324.967 40.9623 324.96 40.9623 324.953 40.9619C323.914 40.9517 322.172 40.8179 322.179 40.0408C322.186 39.3965 324.019 32.4617 324.228 31.673C324.246 31.6051 324.291 31.5472 324.351 31.5119C324.412 31.4766 324.484 31.4669 324.552 31.4849C324.62 31.5029 324.678 31.5471 324.713 31.6078C324.749 31.6685 324.758 31.7408 324.74 31.8086C323.926 34.8801 322.713 39.6085 322.708 40.0473C322.809 40.2324 323.882 40.4231 324.958 40.4342C325.026 40.4357 325.09 40.4631 325.139 40.5109C325.187 40.5587 325.215 40.6232 325.217 40.691C325.219 40.7589 325.195 40.8249 325.15 40.8755C325.104 40.9261 325.041 40.9573 324.974 40.9628V40.9619Z" fill="#0C0C0C"/>
<path d="M321.429 25.426C320.337 25.1254 319.183 25.1254 318.091 25.426C317.555 25.5703 317.043 25.7943 316.573 26.0907C316.109 26.3808 315.683 26.7285 315.305 27.1256C315.236 27.1963 315.196 27.2911 315.195 27.3903C315.193 27.4896 315.23 27.5855 315.297 27.6582C315.365 27.731 315.458 27.7749 315.557 27.7808C315.656 27.7868 315.753 27.7544 315.829 27.6902L315.853 27.6699C316.202 27.3462 316.591 27.068 317.01 26.8419C317.421 26.6167 317.864 26.455 318.323 26.3623C319.227 26.1727 320.166 26.2253 321.043 26.5146L321.08 26.5276C321.223 26.5739 321.379 26.5623 321.515 26.4954C321.65 26.4284 321.754 26.3114 321.804 26.1691C321.854 26.0269 321.847 25.8706 321.784 25.7335C321.721 25.5965 321.607 25.4895 321.466 25.4353L321.429 25.426Z" fill="#0C0C0C"/>
<path d="M329.161 26.0818C329.993 25.6781 330.916 25.501 331.837 25.5686C332.305 25.5989 332.765 25.7 333.202 25.8685C333.647 26.0372 334.069 26.2611 334.458 26.535L334.483 26.5516C334.566 26.6055 334.667 26.625 334.765 26.606C334.863 26.5871 334.949 26.5313 335.006 26.4501C335.064 26.369 335.088 26.2688 335.073 26.1706C335.058 26.0723 335.006 25.9834 334.928 25.9226C334.501 25.5794 334.032 25.2916 333.533 25.0659C333.028 24.8349 332.491 24.681 331.94 24.6095C330.818 24.4566 329.675 24.6096 328.632 25.0525C328.563 25.0829 328.499 25.1267 328.446 25.1816C328.393 25.2364 328.352 25.3011 328.324 25.372C328.296 25.4429 328.282 25.5187 328.284 25.5949C328.285 25.6711 328.301 25.7463 328.332 25.8162C328.393 25.9573 328.508 26.0683 328.651 26.1248C328.722 26.1527 328.798 26.1664 328.874 26.1651C328.95 26.1637 329.025 26.1474 329.095 26.117L329.128 26.1017L329.161 26.0818Z" fill="#0C0C0C"/>
<path d="M328.632 8.98939C329.366 5.4763 328.026 2.2241 325.639 1.72542C323.252 1.22674 320.722 3.67041 319.988 7.1835C319.254 10.6966 320.594 13.9488 322.981 14.4474C325.368 14.9461 327.898 12.5025 328.632 8.98939Z" fill="#0C0C0C"/>
<path d="M293.411 101.734C294.035 109.061 298.456 154.78 299.057 163.807H380.321C380.788 155.666 382.885 120.068 384.655 104.146C386.346 88.9543 388.715 82.0413 386.768 77.3207C383.334 68.9941 372.406 65.2761 365.005 64.274C360.486 63.6621 353.689 63.2238 353.689 63.2238C353.689 63.2238 353.114 74.8658 339.391 75.5138C320.711 76.3932 321.959 63.2238 321.866 63.2238C318.84 63.2238 302.367 65.4246 298.248 68.1092C292.43 71.9008 290.711 77.0685 290.643 81.8159C290.565 87.2835 292.704 93.4213 293.411 101.734Z" fill="#7000FF"/>
<path d="M297.531 145.79C297.473 145.79 297.417 145.769 297.375 145.73C297.332 145.69 297.305 145.637 297.3 145.579L294.221 110.366C294.216 110.304 294.235 110.244 294.274 110.197C294.314 110.15 294.37 110.12 294.431 110.115C294.462 110.112 294.492 110.115 294.522 110.124C294.551 110.133 294.578 110.147 294.601 110.167C294.625 110.187 294.644 110.211 294.658 110.238C294.672 110.265 294.68 110.295 294.682 110.325L297.761 145.539C297.766 145.6 297.747 145.66 297.708 145.707C297.668 145.754 297.612 145.784 297.551 145.789C297.544 145.79 297.538 145.79 297.531 145.79Z" fill="#0C0C0C"/>
<path d="M303.424 166.244L314.582 157.191L312.705 157.722C312.095 157.881 311.448 157.803 310.894 157.503C310.339 157.204 309.92 156.705 309.719 156.108C309.626 155.796 309.598 155.468 309.636 155.145C309.674 154.822 309.778 154.51 309.94 154.228C310.103 153.947 310.321 153.701 310.582 153.506C310.842 153.311 311.14 153.172 311.456 153.096L334.898 147.395L336.915 154.861C337.541 157.18 337.461 159.633 336.685 161.906C335.908 164.18 334.47 166.169 332.556 167.62L323.87 174.174C323.425 174.523 322.874 174.708 322.309 174.697C321.744 174.686 321.2 174.481 320.769 174.115C320.386 173.776 320.122 173.324 320.015 172.825C319.908 172.325 319.963 171.804 320.173 171.338C320.135 171.327 320.101 171.306 320.075 171.277C320.051 171.249 320.035 171.216 320.028 171.18C320.021 171.144 320.022 171.107 320.033 171.072L318.433 172.284C317.938 172.674 317.314 172.862 316.686 172.81C316.058 172.758 315.474 172.47 315.051 172.003C314.687 171.573 314.487 171.028 314.485 170.464C314.484 169.901 314.681 169.355 315.042 168.923C315.017 168.919 314.992 168.911 314.97 168.898L314.313 169.397C313.868 169.745 313.317 169.93 312.752 169.919C312.187 169.908 311.643 169.703 311.212 169.337C310.748 168.926 310.461 168.352 310.411 167.734C310.362 167.116 310.554 166.503 310.946 166.024C310.937 166.01 310.929 165.996 310.923 165.981L306.276 169.751C306.046 169.937 305.781 170.077 305.496 170.162C305.212 170.246 304.914 170.274 304.619 170.243C304.324 170.212 304.038 170.124 303.777 169.982C303.516 169.841 303.286 169.65 303.099 169.419C302.912 169.189 302.772 168.924 302.688 168.64C302.603 168.355 302.576 168.057 302.606 167.762C302.637 167.467 302.726 167.181 302.867 166.92C303.008 166.659 303.2 166.429 303.43 166.242L303.424 166.244Z" fill="#E98862"/>
<path opacity="0.2" d="M311.201 166.115C311.225 166.107 311.248 166.094 311.268 166.077L315.739 162.363C315.762 162.344 315.781 162.321 315.795 162.294C315.808 162.268 315.817 162.24 315.819 162.21C315.822 162.181 315.819 162.151 315.81 162.123C315.801 162.095 315.787 162.069 315.768 162.046C315.749 162.023 315.726 162.004 315.7 161.991C315.674 161.977 315.645 161.968 315.616 161.966C315.586 161.963 315.557 161.966 315.529 161.975C315.5 161.984 315.474 161.998 315.452 162.017L310.981 165.731C310.94 165.765 310.913 165.812 310.903 165.864C310.894 165.916 310.903 165.969 310.929 166.015C310.956 166.061 310.997 166.096 311.047 166.115C311.096 166.133 311.151 166.133 311.201 166.115Z" fill="#0A0A0A"/>
<path opacity="0.2" d="M315.141 168.921C315.165 168.912 315.187 168.899 315.207 168.883L318.744 165.991C318.79 165.954 318.819 165.899 318.825 165.84C318.831 165.78 318.813 165.721 318.776 165.675C318.738 165.629 318.683 165.599 318.624 165.593C318.565 165.587 318.505 165.605 318.459 165.643L314.922 168.535C314.881 168.568 314.853 168.615 314.843 168.667C314.834 168.72 314.843 168.774 314.869 168.82C314.895 168.866 314.937 168.902 314.986 168.92C315.036 168.939 315.091 168.939 315.141 168.921Z" fill="#0A0A0A"/>
<path opacity="0.2" d="M320.317 171.346C320.343 171.336 320.367 171.322 320.388 171.304L322.026 169.9C322.049 169.88 322.067 169.857 322.08 169.831C322.094 169.804 322.102 169.776 322.104 169.746C322.106 169.717 322.103 169.687 322.094 169.659C322.084 169.631 322.07 169.605 322.051 169.583C322.031 169.56 322.008 169.542 321.982 169.529C321.955 169.515 321.927 169.507 321.897 169.505C321.868 169.503 321.838 169.506 321.81 169.515C321.782 169.525 321.756 169.539 321.734 169.558L320.095 170.963C320.056 170.997 320.029 171.045 320.02 171.096C320.012 171.148 320.021 171.201 320.048 171.247C320.074 171.292 320.115 171.327 320.165 171.345C320.214 171.363 320.268 171.363 320.317 171.346Z" fill="#0A0A0A"/>
<path d="M402.044 144.071L401.958 143.691L387.125 78.0858L357.781 84.7193L369.358 135.928L322.982 147.324L328.689 173.492L390.491 161.704C390.63 161.677 390.836 161.636 390.977 161.604C392.855 161.179 394.63 160.389 396.203 159.278C397.775 158.167 399.114 156.757 400.141 155.129C401.169 153.501 401.866 151.687 402.192 149.789C402.519 147.892 402.468 145.948 402.044 144.071Z" fill="#7000FF"/>
<path d="M322.755 147.373C322.742 147.315 322.753 147.253 322.785 147.203C322.817 147.152 322.868 147.116 322.926 147.101L369.096 135.761L361.589 102.605C361.581 102.575 361.578 102.543 361.582 102.512C361.587 102.481 361.597 102.451 361.613 102.424C361.629 102.397 361.65 102.374 361.676 102.355C361.701 102.337 361.73 102.324 361.761 102.317C361.791 102.31 361.823 102.309 361.854 102.315C361.885 102.321 361.914 102.333 361.94 102.35C361.966 102.367 361.989 102.39 362.006 102.416C362.023 102.442 362.034 102.472 362.04 102.503L369.597 135.881C369.611 135.94 369.601 136.003 369.569 136.055C369.537 136.107 369.486 136.144 369.427 136.159L323.254 147.498C323.254 147.498 323.563 148.848 323.65 149.303C323.657 149.363 323.64 149.422 323.603 149.469C323.566 149.516 323.512 149.546 323.453 149.553C323.393 149.56 323.334 149.543 323.287 149.506C323.24 149.469 323.21 149.415 323.203 149.355C323.097 148.856 322.755 147.373 322.755 147.373Z" fill="#0C0C0C"/>
<path d="M324.564 183.915L306.733 129.103C306.42 128.14 305.81 127.301 304.99 126.706C304.171 126.11 303.184 125.79 302.171 125.79H229.526C228.769 125.79 228.022 125.969 227.347 126.313C226.673 126.657 226.089 127.155 225.644 127.768C225.199 128.381 224.905 129.09 224.787 129.838C224.669 130.586 224.729 131.352 224.964 132.072L242.795 186.883C243.109 187.846 243.719 188.686 244.538 189.281C245.358 189.876 246.345 190.197 247.357 190.197H320.002C320.759 190.197 321.506 190.017 322.181 189.674C322.855 189.33 323.439 188.831 323.884 188.218C324.329 187.606 324.623 186.896 324.741 186.148C324.859 185.4 324.799 184.635 324.564 183.915Z" fill="#292A2E"/>
<path opacity="0.2" d="M324.564 183.915L306.733 129.103C306.42 128.14 305.81 127.301 304.99 126.706C304.171 126.11 303.184 125.79 302.171 125.79H229.526C228.769 125.79 228.022 125.969 227.347 126.313C226.673 126.657 226.089 127.155 225.644 127.768C225.199 128.381 224.905 129.09 224.787 129.838C224.669 130.586 224.729 131.352 224.964 132.072L242.795 186.883C243.109 187.846 243.719 188.686 244.538 189.281C245.358 189.876 246.345 190.197 247.357 190.197H320.002C320.759 190.197 321.506 190.017 322.181 189.674C322.855 189.33 323.439 188.831 323.884 188.218C324.329 187.606 324.623 186.896 324.741 186.148C324.859 185.4 324.799 184.635 324.564 183.915Z" fill="white"/>
<path d="M272.671 165.612C276.879 165.612 280.29 162.201 280.29 157.993C280.29 153.786 276.879 150.374 272.671 150.374C268.464 150.374 265.053 153.786 265.053 157.993C265.053 162.201 268.464 165.612 272.671 165.612Z" fill="white"/>
<path d="M200.948 5.79205H56.7649C50.0852 5.79205 44.6703 11.207 44.6703 17.8867V192.921C44.6703 199.601 50.0852 205.016 56.7649 205.016H200.948C207.628 205.016 213.042 199.601 213.042 192.921V17.8867C213.042 11.207 207.628 5.79205 200.948 5.79205Z" fill="#292A2E"/>
<path d="M206.277 0.46286H62.0942C55.4145 0.46286 49.9995 5.87781 49.9995 12.5575V187.592C49.9995 194.272 55.4145 199.687 62.0942 199.687H206.277C212.957 199.687 218.372 194.272 218.372 187.592V12.5575C218.372 5.87781 212.957 0.46286 206.277 0.46286Z" fill="white"/>
<path d="M206.277 200.149H62.0942C58.7648 200.146 55.5728 198.821 53.2186 196.467C50.8644 194.113 49.5402 190.921 49.5367 187.591V12.5575C49.5403 9.22815 50.8645 6.03624 53.2187 3.68206C55.5729 1.32787 58.7648 0.00367529 62.0942 0L206.277 0C209.606 0.00379778 212.798 1.32805 215.152 3.68222C217.506 6.03639 218.83 9.22823 218.834 12.5575V187.591C218.83 190.921 217.506 194.113 215.152 196.467C212.798 198.821 209.606 200.146 206.277 200.149ZM62.0942 0.925692C59.0103 0.929122 56.0537 2.15571 53.873 4.33635C51.6924 6.51699 50.4658 9.47359 50.4624 12.5575V187.591C50.4658 190.675 51.6924 193.632 53.873 195.813C56.0537 197.993 59.0103 199.22 62.0942 199.223H206.277C209.361 199.22 212.317 197.993 214.498 195.813C216.679 193.632 217.905 190.675 217.908 187.591V12.5575C217.905 9.47363 216.679 6.51703 214.498 4.33638C212.317 2.15573 209.361 0.929122 206.277 0.925692H62.0942Z" fill="#292A2E"/>
<path d="M48.0574 224.732C64.6415 224.732 78.0855 211.288 78.0855 194.704C78.0855 178.12 64.6415 164.676 48.0574 164.676C31.4733 164.676 18.0293 178.12 18.0293 194.704C18.0293 211.288 31.4733 224.732 48.0574 224.732Z" fill="#292A2E"/>
<path d="M41.8238 190.785C41.4285 190.785 41.0493 190.628 40.7698 190.349C40.4902 190.069 40.3331 189.69 40.333 189.295V182.078C40.333 178.088 43.7983 174.841 48.0574 174.841C52.3165 174.841 55.7819 178.088 55.7819 182.078V188.799C55.7853 188.997 55.7494 189.194 55.676 189.378C55.6027 189.562 55.4934 189.729 55.3547 189.871C55.2159 190.012 55.0504 190.124 54.8678 190.201C54.6853 190.277 54.4893 190.317 54.2913 190.317C54.0933 190.317 53.8973 190.277 53.7147 190.201C53.5321 190.124 53.3666 190.012 53.2278 189.871C53.0891 189.729 52.9798 189.562 52.9065 189.378C52.8332 189.194 52.7972 188.997 52.8007 188.799V182.078C52.8007 179.732 50.6716 177.823 48.0574 177.823C45.4432 177.823 43.3142 179.732 43.3142 182.078V189.296C43.3139 189.691 43.1568 190.07 42.8773 190.349C42.5978 190.628 42.2189 190.785 41.8238 190.785Z" fill="white"/>
<path d="M57.5671 188.047H38.5478C37.4386 188.047 36.5395 188.946 36.5395 190.056V207.971C36.5395 209.08 37.4386 209.979 38.5478 209.979H57.5671C58.6762 209.979 59.5754 209.08 59.5754 207.971V190.056C59.5754 188.946 58.6762 188.047 57.5671 188.047Z" fill="white"/>
<path d="M46.1639 197.239C46.1637 197.595 46.2634 197.943 46.4517 198.244C46.6399 198.546 46.9091 198.788 47.2284 198.944V201.853C47.2284 202.072 47.3155 202.283 47.4706 202.438C47.6256 202.593 47.8358 202.68 48.0551 202.68C48.2743 202.68 48.4846 202.593 48.6396 202.438C48.7946 202.283 48.8817 202.072 48.8817 201.853V198.944C49.1859 198.796 49.445 198.57 49.6322 198.288C49.8193 198.006 49.9276 197.68 49.9458 197.342C49.9641 197.005 49.8916 196.668 49.7359 196.368C49.5802 196.068 49.3469 195.815 49.0604 195.636C48.7739 195.456 48.4445 195.357 48.1065 195.347C47.7685 195.338 47.4342 195.42 47.1384 195.583C46.8425 195.747 46.5959 195.987 46.4241 196.278C46.2524 196.569 46.1617 196.901 46.1616 197.239H46.1639Z" fill="#292A2E"/>
<path d="M193.686 99.8696H74.685C71.8442 99.8696 69.5414 102.173 69.5414 105.013V121.696C69.5414 124.537 71.8442 126.84 74.685 126.84H193.686C196.527 126.84 198.83 124.537 198.83 121.696V105.013C198.83 102.173 196.527 99.8696 193.686 99.8696Z" fill="white"/>
<path d="M193.686 127.302H74.685C73.1986 127.3 71.7736 126.709 70.7225 125.658C69.6715 124.607 69.0802 123.182 69.0785 121.696V105.013C69.0802 103.527 69.6715 102.102 70.7225 101.051C71.7735 99.9995 73.1985 99.4081 74.685 99.4063H193.686C195.172 99.408 196.597 99.9993 197.649 101.05C198.7 102.102 199.291 103.527 199.293 105.013V121.696C199.291 123.182 198.7 124.607 197.648 125.658C196.597 126.709 195.172 127.3 193.686 127.302ZM74.685 100.332C73.4439 100.333 72.254 100.827 71.3765 101.705C70.499 102.582 70.0054 103.772 70.0042 105.013V121.696C70.0056 122.937 70.4992 124.126 71.3767 125.004C72.2542 125.881 73.444 126.375 74.685 126.376H193.686C194.927 126.375 196.117 125.881 196.994 125.004C197.872 124.126 198.365 122.937 198.367 121.696V105.013C198.366 103.772 197.872 102.582 196.994 101.705C196.117 100.827 194.927 100.333 193.686 100.332H74.685Z" fill="#292A2E"/>
<path d="M193.686 138.413H74.685C71.8442 138.413 69.5414 140.716 69.5414 143.556V160.239C69.5414 163.08 71.8442 165.383 74.685 165.383H193.686C196.527 165.383 198.83 163.08 198.83 160.239V143.556C198.83 140.716 196.527 138.413 193.686 138.413Z" fill="white"/>
<path d="M193.686 165.845H74.685C73.1983 165.843 71.7731 165.252 70.722 164.201C69.6709 163.149 69.0799 161.724 69.0785 160.237V143.556C69.0802 142.07 69.6715 140.645 70.7225 139.594C71.7736 138.543 73.1986 137.952 74.685 137.95H193.686C195.172 137.951 196.597 138.543 197.648 139.594C198.7 140.645 199.291 142.07 199.293 143.556V160.237C199.291 161.724 198.7 163.149 197.649 164.201C196.598 165.252 195.172 165.844 193.686 165.845ZM74.685 138.876C73.444 138.877 72.2542 139.37 71.3767 140.248C70.4992 141.125 70.0056 142.315 70.0042 143.556V160.237C70.0056 161.478 70.4992 162.668 71.3767 163.546C72.2542 164.423 73.444 164.917 74.685 164.918H193.686C194.927 164.917 196.117 164.423 196.994 163.546C197.872 162.668 198.366 161.478 198.367 160.237V143.556C198.366 142.315 197.872 141.125 196.994 140.248C196.117 139.37 194.927 138.877 193.686 138.876H74.685Z" fill="#292A2E"/>
<path d="M134.185 79.8085C149.445 79.8085 161.815 67.4385 161.815 52.1794C161.815 36.9202 149.445 24.5503 134.185 24.5503C118.926 24.5503 106.556 36.9202 106.556 52.1794C106.556 67.4385 118.926 79.8085 134.185 79.8085Z" fill="white"/>
<path d="M134.185 80.2714C128.629 80.2714 123.198 78.6238 118.578 75.537C113.959 72.4502 110.358 68.0629 108.232 62.9297C106.105 57.7966 105.549 52.1482 106.633 46.6989C107.717 41.2496 110.393 36.2441 114.321 32.3154C118.25 28.3866 123.256 25.7111 128.705 24.6272C134.154 23.5433 139.803 24.0996 144.936 26.2258C150.069 28.352 154.456 31.9526 157.543 36.5723C160.63 41.192 162.277 46.6233 162.277 52.1794C162.269 59.6273 159.307 66.7677 154.04 72.0342C148.774 77.3007 141.633 80.263 134.185 80.2714ZM134.185 25.0131C128.812 25.0131 123.56 26.6064 119.093 29.5915C114.625 32.5765 111.143 36.8193 109.087 41.7833C107.031 46.7473 106.493 52.2095 107.541 57.4793C108.589 62.749 111.177 67.5896 114.976 71.3888C118.775 75.1881 123.616 77.7755 128.885 78.8237C134.155 79.8719 139.617 79.3339 144.581 77.2778C149.545 75.2216 153.788 71.7396 156.773 67.2722C159.758 62.8047 161.352 57.5524 161.352 52.1794C161.344 44.9769 158.479 38.0718 153.386 32.9789C148.293 27.8859 141.388 25.0212 134.185 25.0131Z" fill="#292A2E"/>
<path opacity="0.5" d="M161.201 52.1794C161.209 58.5744 158.94 64.7633 154.8 69.6375C152.25 66.6649 149.087 64.279 145.529 62.6435C141.97 61.0079 138.1 60.1615 134.184 60.1622C130.267 60.1629 126.397 61.0107 122.84 62.6475C119.282 64.2843 116.12 66.6714 113.571 69.6449C110.76 66.327 108.791 62.3796 107.832 58.138C106.873 53.8963 106.952 49.4859 108.063 45.2814C109.173 41.0769 111.282 37.2026 114.21 33.9876C117.139 30.7727 120.8 28.3121 124.883 26.815C128.966 25.3178 133.349 24.8283 137.662 25.3882C141.974 25.948 146.088 27.5405 149.653 30.0305C153.219 32.5204 156.13 35.8342 158.14 39.6903C160.151 43.5464 161.201 47.8307 161.201 52.1794Z" fill="#367CFF"/>
<path d="M154.8 69.6375C152.264 72.6318 149.107 75.0378 145.547 76.6883C141.987 78.3388 138.111 79.1941 134.187 79.1949C130.263 79.1956 126.387 78.3416 122.826 76.6924C119.266 75.0432 116.108 72.6382 113.571 69.6449C116.12 66.6714 119.282 64.2843 122.84 62.6475C126.397 61.0107 130.267 60.1629 134.184 60.1622C138.1 60.1615 141.97 61.0079 145.529 62.6435C149.087 64.279 152.25 66.6649 154.8 69.6375Z" fill="white"/>
<path d="M134.186 55.1217C140.217 55.1217 145.106 50.2327 145.106 44.2018C145.106 38.1709 140.217 33.2819 134.186 33.2819C128.155 33.2819 123.266 38.1709 123.266 44.2018C123.266 50.2327 128.155 55.1217 134.186 55.1217Z" fill="white"/>
<g opacity="0.4">
<path opacity="0.4" d="M79.5583 155.182C81.3722 155.182 82.8427 153.712 82.8427 151.898C82.8427 150.084 81.3722 148.613 79.5583 148.613C77.7444 148.613 76.2739 150.084 76.2739 151.898C76.2739 153.712 77.7444 155.182 79.5583 155.182Z" fill="#292A2E"/>
<path opacity="0.4" d="M89.8321 155.182C91.646 155.182 93.1165 153.712 93.1165 151.898C93.1165 150.084 91.646 148.613 89.8321 148.613C88.0182 148.613 86.5478 150.084 86.5478 151.898C86.5478 153.712 88.0182 155.182 89.8321 155.182Z" fill="#292A2E"/>
<path opacity="0.4" d="M100.106 155.182C101.92 155.182 103.39 153.712 103.39 151.898C103.39 150.084 101.92 148.613 100.106 148.613C98.292 148.613 96.8216 150.084 96.8216 151.898C96.8216 153.712 98.292 155.182 100.106 155.182Z" fill="#292A2E"/>
<path opacity="0.4" d="M110.38 155.182C112.194 155.182 113.664 153.712 113.664 151.898C113.664 150.084 112.194 148.613 110.38 148.613C108.566 148.613 107.095 150.084 107.095 151.898C107.095 153.712 108.566 155.182 110.38 155.182Z" fill="#292A2E"/>
<path opacity="0.4" d="M120.653 155.182C122.467 155.182 123.937 153.712 123.937 151.898C123.937 150.084 122.467 148.613 120.653 148.613C118.839 148.613 117.369 150.084 117.369 151.898C117.369 153.712 118.839 155.182 120.653 155.182Z" fill="#292A2E"/>
<path opacity="0.4" d="M130.927 155.182C132.741 155.182 134.211 153.712 134.211 151.898C134.211 150.084 132.741 148.613 130.927 148.613C129.113 148.613 127.643 150.084 127.643 151.898C127.643 153.712 129.113 155.182 130.927 155.182Z" fill="#292A2E"/>
<path opacity="0.4" d="M141.201 155.182C143.015 155.182 144.485 153.712 144.485 151.898C144.485 150.084 143.015 148.613 141.201 148.613C139.387 148.613 137.916 150.084 137.916 151.898C137.916 153.712 139.387 155.182 141.201 155.182Z" fill="#292A2E"/>
</g>
<g opacity="0.3">
<path opacity="0.3" d="M82.8158 113.157V114.267H78.5979V113.157H82.8158Z" fill="black"/>
<path opacity="0.3" d="M88.0576 113.157V114.267H83.8396V113.157H88.0576Z" fill="black"/>
<path opacity="0.3" d="M93.2989 113.157V114.267H89.0809V113.157H93.2989Z" fill="black"/>
<path opacity="0.3" d="M98.5401 113.157V114.267H94.3222V113.157H98.5401Z" fill="black"/>
<path opacity="0.3" d="M103.782 113.157V114.267H99.5639V113.157H103.782Z" fill="black"/>
<path opacity="0.3" d="M113.242 119.424C112.303 119.906 111.258 120.141 110.204 120.109C107.403 120.109 105.029 118.059 105.029 114.78C105.029 111.263 107.472 108.223 111.262 108.223C114.234 108.223 116.232 110.305 116.232 113.158C116.232 115.72 114.797 117.222 113.192 117.222C112.509 117.222 111.878 116.759 111.928 115.72H111.86C111.639 116.17 111.297 116.549 110.871 116.815C110.446 117.08 109.955 117.222 109.453 117.222C108.463 117.222 107.609 116.42 107.609 115.071C107.607 114.539 107.71 114.012 107.913 113.52C108.116 113.028 108.414 112.581 108.79 112.205C109.166 111.828 109.613 111.53 110.105 111.328C110.597 111.125 111.124 111.021 111.656 111.023C112.284 111.014 112.906 111.136 113.484 111.382L112.903 114.473C112.647 115.769 112.852 116.371 113.415 116.386C114.286 116.402 115.26 115.241 115.26 113.261C115.26 110.784 113.774 109.009 111.127 109.009C108.343 109.009 106.004 111.211 106.004 114.678C106.004 117.53 107.865 119.289 110.393 119.289C111.289 119.31 112.176 119.104 112.971 118.691L113.242 119.424ZM112.302 112.047C112.025 111.965 111.737 111.925 111.448 111.927C109.946 111.927 108.733 113.344 108.733 115.001C108.733 115.752 109.109 116.297 109.86 116.297C110.851 116.297 111.756 115.033 111.943 113.974L112.302 112.047Z" fill="black"/>
<path opacity="0.3" d="M121.607 113.157V114.267H117.389V113.157H121.607Z" fill="black"/>
<path opacity="0.3" d="M126.849 113.157V114.267H122.63V113.157H126.849Z" fill="black"/>
<path opacity="0.3" d="M132.09 113.157V114.267H127.872V113.157H132.09Z" fill="black"/>
</g>
</svg>
